<?xml version="1.0" encoding="UTF-8" standalone="no"?>
<!DOCTYPE svg PUBLIC "-//W3C//DTD SVG 1.1//EN" "http://www.w3.org/Graphics/SVG/1.1/DTD/svg11.dtd">
<svg width="100%" height="100%" viewBox="0 0 25 28" version="1.1" xmlns="http://www.w3.org/2000/svg" xmlns:xlink="http://www.w3.org/1999/xlink" xml:space="preserve" xmlns:serif="http://www.serif.com/" style="fill-rule:evenodd;clip-rule:evenodd;stroke-linejoin:round;stroke-miterlimit:2;">
    <g transform="matrix(1.5,0,0,1.5,0,0)">
        <g id="ion-ios-refresh-empty" transform="matrix(1,0,0,1,0.217822,-6.03218)">
            <path d="M8,24C3.562,24 0,20.437 0,16C0,11.563 3.563,8 8,8L8,6.25L14,9.25L8,11.75L8,9.25C4.25,9.25 1.25,12.25 1.25,16C1.25,19.75 4.25,22.75 8,22.75C11.75,22.75 14.75,19.75 14.75,16L16,16C16,20.438 12.437,24 8,24Z" style="fill:rgb(103,134,199);fill-rule:nonzero;stroke:rgb(103,134,199);stroke-width:0.44px;"/>
        </g>
        <g transform="matrix(0.818243,0,0,0.818243,-56.9888,-114.474)">
            <text x="72.864px" y="158.089px" style="font-family:'FootlightMTLight', 'Footlight MT Light', serif;font-weight:300;font-size:24.101px;">u</text>
        </g>
    </g>
</svg>
